<svg width="1200" height="760" viewBox="0 0 1200 760" fill="none" xmlns="http://www.w3.org/2000/svg">
  <rect width="1200" height="760" rx="24" fill="#090B10"/>
  <rect x="36" y="36" width="1128" height="688" rx="20" fill="url(#bg)"/>
  <polygon points="980,120 1040,210 920,210" fill="#F59E0B" fill-opacity="0.25"/>
  <rect x="84" y="94" width="390" height="36" rx="11" fill="#F59E0B" fill-opacity="0.24"/>
  <rect x="84" y="154" width="620" height="20" rx="8" fill="#FFFFFF" fill-opacity="0.14"/>
  <rect x="84" y="236" width="560" height="250" rx="18" fill="#111827" fill-opacity="0.8"/>
  <rect x="104" y="256" width="250" height="110" rx="12" fill="#F59E0B" fill-opacity="0.2"/>
  <rect x="374" y="256" width="250" height="110" rx="12" fill="#FFFFFF" fill-opacity="0.1"/>
  <rect x="104" y="384" width="520" height="82" rx="12" fill="#FFFFFF" fill-opacity="0.08"/>
  <rect x="668" y="236" width="368" height="250" rx="18" fill="#FFFFFF" fill-opacity="0.08"/>
  <rect x="84" y="514" width="952" height="16" rx="6" fill="#FFFFFF" fill-opacity="0.1"/>
  <rect x="84" y="544" width="770" height="16" rx="6" fill="#FFFFFF" fill-opacity="0.08"/>
  <text x="84" y="642" fill="#FCD34D" font-size="30" font-family="Pretendard, sans-serif" letter-spacing="2">UNITY WEBVIEW OPTIMIZATION PREVIEW</text>
  <defs>
    <linearGradient id="bg" x1="36" y1="36" x2="1100" y2="700" gradientUnits="userSpaceOnUse">
      <stop stop-color="#111827"/>
      <stop offset="0.6" stop-color="#0F172A"/>
      <stop offset="1" stop-color="#1F2937"/>
    </linearGradient>
  </defs>
</svg>
