<svg width="1200" height="760" viewBox="0 0 1200 760" fill="none" xmlns="http://www.w3.org/2000/svg">
  <rect width="1200" height="760" rx="24" fill="#0A1010"/>
  <rect x="36" y="36" width="1128" height="688" rx="20" fill="url(#bg)"/>
  <rect x="84" y="94" width="360" height="36" rx="11" fill="#34D399" fill-opacity="0.24"/>
  <rect x="84" y="154" width="600" height="20" rx="8" fill="#FFFFFF" fill-opacity="0.14"/>
  <rect x="84" y="236" width="220" height="320" rx="26" fill="#FFFFFF" fill-opacity="0.12"/>
  <rect x="104" y="260" width="180" height="24" rx="8" fill="#34D399" fill-opacity="0.32"/>
  <rect x="104" y="298" width="150" height="18" rx="6" fill="#FFFFFF" fill-opacity="0.16"/>
  <rect x="332" y="236" width="704" height="150" rx="18" fill="#34D399" fill-opacity="0.14"/>
  <rect x="332" y="406" width="704" height="150" rx="18" fill="#FFFFFF" fill-opacity="0.08"/>
  <rect x="84" y="586" width="952" height="16" rx="6" fill="#FFFFFF" fill-opacity="0.1"/>
  <rect x="84" y="616" width="730" height="16" rx="6" fill="#FFFFFF" fill-opacity="0.08"/>
  <text x="84" y="694" fill="#6EE7B7" font-size="30" font-family="Pretendard, sans-serif" letter-spacing="2">RUNNING APP PROTOTYPE PREVIEW</text>
  <defs>
    <linearGradient id="bg" x1="36" y1="36" x2="1100" y2="700" gradientUnits="userSpaceOnUse">
      <stop stop-color="#064E3B"/>
      <stop offset="0.58" stop-color="#065F46"/>
      <stop offset="1" stop-color="#0F172A"/>
    </linearGradient>
  </defs>
</svg>
